<?xml version="1.0" ?>
<!-- Uploaded to: SVG Repo, www.svgrepo.com, Generator: SVG Repo Mixer Tools -->
<svg width="800px" height="800px" viewBox="0 0 64 64" id="svg5" version="1.1" xml:space="preserve" xmlns="http://www.w3.org/2000/svg" xmlns:svg="http://www.w3.org/2000/svg">
<defs id="defs2"/>
<g id="layer1" transform="translate(-192,-576)">
<path d="m 202,585 h 49 v 6 h -49 z" id="path61114" style="fill:#3e4f59;fill-opacity:1;fill-rule:evenodd;stroke-width:2;stroke-linecap:round;stroke-linejoin:round;stroke-miterlimit:4.1"/>
<path d="m 202,591 h 49 v 40 h -49 z" id="path61116" style="fill:#acbec2;fill-opacity:1;fill-rule:evenodd;stroke-width:2.00001;stroke-linecap:round;stroke-linejoin:round;stroke-miterlimit:4.1"/>
<path d="m 202,591 v 40 h 29.76953 a 28.484051,41.392605 35.599482 0 0 18.625,-40 z" id="path61118" style="fill:#e8edee;fill-opacity:1;fill-rule:evenodd;stroke:none;stroke-width:2.00002;stroke-linecap:round;stroke-linejoin:round;stroke-miterlimit:4.1"/>
<path d="m 204,584 c -1.64501,0 -3,1.355 -3,3 v 40 c 0,0.55229 0.44772,1 1,1 0.55229,0 1,-0.44771 1,-1 v -40 c 0,-0.56413 0.43587,-1 1,-1 h 45 c 0.56413,0 1,0.43587 1,1 v 3 h -42 c -0.55228,0 -1,0.44772 -1,1 0,0.55229 0.44772,1 1,1 h 42 v 37 c 0,0.56413 -0.43587,1 -1,1 h -49 c -0.55228,0 -1,0.44772 -1,1 0,0.55229 0.44772,1 1,1 h 49 c 1.64501,0 3,-1.35499 3,-3 0,-14 0,-28 0,-42 0,-1.645 -1.35499,-3 -3,-3 z" id="path61120" style="color:#000000;fill:#000000;fill-rule:evenodd;stroke-linecap:round;stroke-linejoin:round;stroke-miterlimit:4.1"/>
<path d="m 247,587 c -0.55228,0 -1,0.44772 -1,1 0,0.55229 0.44772,1 1,1 0.55229,0 1,-0.44771 1,-1 0,-0.55228 -0.44771,-1 -1,-1 z" id="path61122" style="color:#000000;fill:#ed7161;fill-opacity:1;fill-rule:evenodd;stroke-linecap:round;stroke-linejoin:round;stroke-miterlimit:4.1;-inkscape-stroke:none"/>
<path d="m 243,587 c -0.55228,0 -1,0.44772 -1,1 0,0.55229 0.44772,1 1,1 0.55229,0 1,-0.44771 1,-1 0,-0.55228 -0.44771,-1 -1,-1 z" id="path61124" style="color:#000000;fill:#ecba16;fill-opacity:1;fill-rule:evenodd;stroke-linecap:round;stroke-linejoin:round;stroke-miterlimit:4.1;-inkscape-stroke:none"/>
<path d="m 239,587 c -0.55228,0 -1,0.44772 -1,1 0,0.55229 0.44772,1 1,1 0.55229,0 1,-0.44771 1,-1 0,-0.55228 -0.44771,-1 -1,-1 z" id="path61126" style="color:#000000;fill:#42b05c;fill-opacity:1;fill-rule:evenodd;stroke-linecap:round;stroke-linejoin:round;stroke-miterlimit:4.1;-inkscape-stroke:none"/>
<path d="m 197,630 a 1,1 0 0 0 -1,1 1,1 0 0 0 1,1 1,1 0 0 0 1,-1 1,1 0 0 0 -1,-1 z" id="path61128" style="color:#000000;fill:#000000;fill-rule:evenodd;stroke-linecap:round;stroke-linejoin:round;stroke-miterlimit:4.1;-inkscape-stroke:none"/>
<path d="m 205,590 c -0.55228,0 -1,0.44772 -1,1 0,0.55229 0.44772,1 1,1 0.55229,0 1,-0.44771 1,-1 0,-0.55228 -0.44771,-1 -1,-1 z" id="path61130" style="color:#000000;fill:#000000;fill-rule:evenodd;stroke-linecap:round;stroke-linejoin:round;stroke-miterlimit:4.1;-inkscape-stroke:none"/>
<path d="m 218.99992,597 h 19.0001 A 1.99998,1.99998 0 0 1 240,598.99998 V 616 a 1.99998,1.99998 0 0 1 -1.99998,1.99998 h -21.00008 v -19 A 1.99998,1.99998 0 0 1 218.99992,597 Z" id="rect11224" style="fill:#ffa221;fill-opacity:1;fill-rule:evenodd;stroke:none;stroke-width:1.99999;stroke-linecap:round;stroke-linejoin:round;stroke-miterlimit:4.1"/>
<path d="m 219,597 a 1.99998,1.99998 0 0 0 -2,2 v 19 h 16.7168 a 18.904984,16.634985 0 0 0 3.1875,-9.21484 A 18.904984,16.634985 0 0 0 231.33594,597 Z" id="path48728" style="fill:#ffc343;fill-opacity:1;fill-rule:evenodd;stroke:none;stroke-width:2.00001;stroke-linecap:round;stroke-linejoin:round;stroke-miterlimit:4.1"/>
<path d="m 219,596 c -1.64499,0 -3,1.35501 -3,3 v 19 a 1.000095,1.000095 0 0 0 1,1 h 21 c 1.64499,0 3,-1.35501 3,-3 v -17 c 0,-1.64499 -1.35501,-3 -3,-3 h -2.02344 a 0.99999499,0.99999499 0 0 0 -1,1 0.99999499,0.99999499 0 0 0 1,1 H 238 c 0.56412,0 1,0.43588 1,1 v 17 c 0,0.56412 -0.43588,1 -1,1 h -20 v -18 c 0,-0.56412 0.43588,-1 1,-1 h 13.02539 a 0.99999499,0.99999499 0 0 0 1,-1 0.99999499,0.99999499 0 0 0 -1,-1 z" id="path14220" style="color:#000000;fill:#000000;fill-rule:evenodd;stroke-linecap:round;stroke-linejoin:round;stroke-miterlimit:4.1"/>
<path d="m 213.99998,602 h 19.00003 a 1.99998,1.99998 0 0 1 1.99998,1.99998 V 622 a 1.99998,1.99998 0 0 1 -1.99998,1.99998 H 213.99998 A 1.99998,1.99998 0 0 1 212,622 V 603.99998 A 1.99998,1.99998 0 0 1 213.99998,602 Z" id="rect11222" style="fill:#fe73c5;fill-opacity:1;fill-rule:evenodd;stroke:none;stroke-width:1.99999;stroke-linecap:round;stroke-linejoin:round;stroke-miterlimit:4.1"/>
<path d="m 214,602 a 1.99998,1.99998 0 0 0 -2,2 v 18 a 1.99998,1.99998 0 0 0 2,2 h 13.24023 a 15.794059,14.173609 0 0 0 3.55469,-8.91602 A 15.794059,14.173609 0 0 0 221.0625,602 Z" id="path48645" style="fill:#fe93d3;fill-opacity:1;fill-rule:evenodd;stroke:none;stroke-width:2;stroke-linecap:round;stroke-linejoin:round;stroke-miterlimit:4.1"/>
<path d="m 215,624 c 1,-1 7,-12 7,-12 l 7,12 z" id="path11243" style="fill:#0075d3;fill-opacity:1;fill-rule:evenodd;stroke:none;stroke-width:2;stroke-linecap:round;stroke-linejoin:round;stroke-miterlimit:4.1;stroke-opacity:1"/>
<circle cx="228" cy="608" id="path11258" r="2" style="fill:#fe93d3;fill-opacity:1;fill-rule:evenodd;stroke:none;stroke-width:2;stroke-linecap:round;stroke-linejoin:round;stroke-miterlimit:4.1;stroke-opacity:1"/>
<path d="m 228,605 c -1.64501,0 -3,1.35499 -3,3 0,1.64501 1.35499,3 3,3 1.64501,0 3,-1.35499 3,-3 0,-1.64501 -1.35499,-3 -3,-3 z m 0,2 c 0.56413,0 1,0.43587 1,1 0,0.56413 -0.43587,1 -1,1 -0.56413,0 -1,-0.43587 -1,-1 0,-0.56413 0.43587,-1 1,-1 z" id="circle14224" style="color:#000000;fill:#000000;fill-rule:evenodd;stroke-linecap:round;stroke-linejoin:round;stroke-miterlimit:4.1;-inkscape-stroke:none"/>
<path d="M 220.29883,615.08398 C 218.44479,618.41842 215.65624,623.34376 215,624 h 10.5 z" id="path48522" style="fill:#0588e2;fill-opacity:1;fill-rule:evenodd;stroke:none;stroke-width:2;stroke-linecap:round;stroke-linejoin:round;stroke-miterlimit:4.1;stroke-opacity:1"/>
<path d="m 222,624 c 2.09659,-3.46851 5.5,-10 5.5,-10 l 5.83348,10.00024 z" id="path14164" style="fill:#0075d3;fill-opacity:1;fill-rule:evenodd;stroke:none;stroke-width:2;stroke-linecap:round;stroke-linejoin:round;stroke-miterlimit:4.1;stroke-opacity:1"/>
<path d="m 221.98633,611 a 1.0001,1.0001 0 0 0 -0.86328,0.52148 c 0,0 -0.9656,1.76844 -2.18555,3.95118 a 1,1 0 0 0 0.38477,1.36132 1,1 0 0 0 1.36132,-0.38476 c 0.74858,-1.33936 0.9449,-1.70671 1.33985,-2.42578 L 227.25977,623 h -10.37305 c 0.0395,-0.0646 0.0594,-0.0779 0.10156,-0.14648 0.53243,-0.86676 1.17202,-1.95962 1.83399,-3.11329 a 1,1 0 0 0 -0.36915,-1.36523 1,1 0 0 0 -1.36523,0.36914 c -0.65638,1.14394 -1.29082,2.22597 -1.80469,3.0625 -0.51386,0.83653 -1.02647,1.52257 -0.99023,1.48633 A 1.0001,1.0001 0 0 0 215,625 h 14 a 1.0001,1.0001 0 0 0 0.86328,-1.50391 l -7,-12 A 1.0001,1.0001 0 0 0 221.98633,611 Z" id="path14228" style="color:#000000;fill:#000000;fill-rule:evenodd;stroke-linecap:round;stroke-linejoin:round;stroke-miterlimit:4.1;-inkscape-stroke:none"/>
<path d="M 226.15039,616.54883 C 224.96808,618.76622 223.27803,621.88568 222,624 h 8.49805 z" id="path48569" style="fill:#0588e2;fill-opacity:1;fill-rule:evenodd;stroke:none;stroke-width:2;stroke-linecap:round;stroke-linejoin:round;stroke-miterlimit:4.1;stroke-opacity:1"/>
<path d="m 214,601 c -1.64499,0 -3,1.35501 -3,3 v 11.95898 a 0.99999499,0.99999499 0 0 0 1,1 0.99999499,0.99999499 0 0 0 1,-1 V 604 c 0,-0.56412 0.43588,-1 1,-1 h 14.97266 a 0.99999499,0.99999499 0 0 0 1,-1 0.99999499,0.99999499 0 0 0 -1,-1 z m 19,0 a 0.99999499,0.99999499 0 0 0 -1,1 0.99999499,0.99999499 0 0 0 1,1 c 0.56412,0 1,0.43588 1,1 v 18 c 0,0.27278 -0.10438,0.51338 -0.27344,0.69141 l -5.36328,-9.19532 A 1.0001,1.0001 0 0 0 227.47656,613 a 1.0001,1.0001 0 0 0 -0.86328,0.53711 c 0,0 -3.11004,5.96222 -5.18164,9.46289 H 214 c -0.56412,0 -1,-0.43588 -1,-1 v -2.05273 a 0.99999499,0.99999499 0 0 0 -1,-1 0.99999499,0.99999499 0 0 0 -1,1 V 622 c 0,1.64499 1.35501,3 3,3 h 8 11 0.33398 a 1.0001,1.0001 0 0 0 0.4375,-0.10547 C 235.04787,624.55008 236,623.37853 236,622 v -18 c 0,-1.64499 -1.35501,-3 -3,-3 z M 227.52539,616.02734 231.5918,623 h -7.90235 c 1.67136,-2.92584 3.18135,-5.72481 3.83594,-6.97266 z" id="path14222" style="color:#000000;fill:#000000;fill-rule:evenodd;stroke-linecap:round;stroke-linejoin:round;stroke-miterlimit:4.1;-inkscape-stroke:none"/>
</g>
</svg>